<svg width="0" height="0" class="hidden" xmlns="http://www.w3.org/2000/svg">

  <symbol id="antenna" viewBox="0 0 64 64">
    <path d="M32 58V34" stroke="#2E2F42" stroke-width="4" stroke-linecap="round"/>
    <path d="M20 58H44" stroke="#2E2F42" stroke-width="4" stroke-linecap="round"/>
    <path d="M32 34L16 10" stroke="#2E2F42" stroke-width="4" stroke-linecap="round"/>
    <path d="M32 34L48 10" stroke="#2E2F42" stroke-width="4" stroke-linecap="round"/>
    <path d="M22 20C28 14 36 14 42 20" stroke="#4D5AE5" stroke-width="4" stroke-linecap="round" fill="none"/>
    <circle cx="32" cy="34" r="5" fill="#4D5AE5"/>
  </symbol>

  <symbol id="astronaut" viewBox="0 0 64 64">
    <circle cx="32" cy="22" r="14" fill="none" stroke="#2E2F42" stroke-width="4"/>
    <path d="M22 24C26 30 38 30 42 24" stroke="#4D5AE5" stroke-width="4" stroke-linecap="round" fill="none"/>
    <path d="M18 60V48C18 40 24 36 32 36C40 36 46 40 46 48V60" stroke="#2E2F42" stroke-width="4" stroke-linecap="round" fill="none"/>
    <path d="M24 50H40" stroke="#4D5AE5" stroke-width="4" stroke-linecap="round"/>
    <circle cx="50" cy="10" r="3" fill="#4D5AE5"/>
  </symbol>

  <symbol id="clock" viewBox="0 0 64 64">
    <circle cx="32" cy="32" r="26" fill="none" stroke="#2E2F42" stroke-width="4"/>
    <path d="M32 16V33L44 40" stroke="#4D5AE5" stroke-width="4" stroke-linecap="round" fill="none"/>
    <path d="M32 6V10M32 54V58M6 32H10M54 32H58" stroke="#2E2F42" stroke-width="4" stroke-linecap="round"/>
  </symbol>

  <symbol id="diagram" viewBox="0 0 64 64">
    <rect x="8" y="10" width="48" height="38" rx="4" fill="none" stroke="#2E2F42" stroke-width="4"/>
    <path d="M16 40L26 30L36 36L48 22" stroke="#4D5AE5" stroke-width="4" stroke-linecap="round" fill="none"/>
  </symbol>

  <symbol id="facebook" viewBox="0 0 24 24">
    <path d="M15 8H13C12.4 8 12 8.4 12 9V11H15L14.5 15H12V24H8V15H6V11H8V8.5C8 5.5 9.8 4 12.7 4H15V8Z" fill="#F4F4FD"/>
  </symbol>

  <symbol id="instagram" viewBox="0 0 24 24">
    <rect x="3" y="3" width="18" height="18" rx="5" fill="none" stroke="#F4F4FD" stroke-width="2"/>
    <circle cx="12" cy="12" r="4" fill="none" stroke="#F4F4FD" stroke-width="2"/>
    <circle cx="17.5" cy="6.5" r="1.5" fill="#F4F4FD"/>
  </symbol>

  <symbol id="linkedin" viewBox="0 0 24 24">
    <path d="M4 8H8V24H4V8Z" fill="#F4F4FD"/>
    <path d="M6 6C7.1 6 8 5.1 8 4C8 2.9 7.1 2 6 2C4.9 2 4 2.9 4 4C4 5.1 4.9 6 6 6Z" fill="#F4F4FD"/>
  </symbol>

  <symbol id="twitter" viewBox="0 0 24 24">
    <path d="M22 6.5C21.3 6.8 20.6 7 19.8 7.1C20.6 6.6 21.2 5.9 21.5 5Z" fill="#F4F4FD"/>
  </symbol>

  <symbol id="send" viewBox="0 0 24 20">
    <path d="M24 0L0 11.25L7.67 13.62L19.5 4.38Z" fill="white"/>
  </symbol>

  <symbol id="phone" viewBox="0 0 13 13">
    <path d="M11.7 8.8L9.8 8.6L7.3 10.4Z" fill="#2E2F42"/>
  </symbol>

  <symbol id="email" viewBox="0 0 15 12">
    <path d="M13.5 0H1.5V12H13.5Z" fill="#2E2F42"/>
  </symbol>

  <symbol id="close" viewBox="0 0 8 8">
    <path d="M8 0.8L4 4L0 0.8" fill="#2E2F42"/>
  </symbol>

  <symbol id="name" viewBox="0 0 12 12">
    <path d="M6 6C7.6 6 9 4.6 9 3Z" fill="#4D5AE5"/>
  </symbol>

  <symbol id="check" viewBox="0 0 10 8">
    <path d="M1 4L4 7L9 1" stroke="currentColor" stroke-width="1.5" fill="none"/>
  </symbol>

  <symbol id="icon-menu" viewBox="0 0 24 24">
    <path d="M3 6H21M3 12H21M3 18H21" stroke="#2E2F42" stroke-width="2" stroke-linecap="round"/>
  </symbol>

</svg>